<?xml version="1.0" encoding="utf-8"?>
<!-- Generator: Adobe Illustrator 24.3.0, SVG Export Plug-In . SVG Version: 6.00 Build 0)  -->
<svg version="1.1" id="Layer_1" xmlns="http://www.w3.org/2000/svg" xmlns:xlink="http://www.w3.org/1999/xlink" x="0px" y="0px"
	 viewBox="0 0 8192 2048" style="enable-background:new 0 0 8192 2048;" xml:space="preserve">
<style type="text/css">
	.st0{fill:#FFFFFF;}
	.st1{fill:#ABADB0;}
</style>
<path class="st0" d="M264.7,608.8c42.9-58.9,93.6-110.1,152.8-152.6c82.8-59.5,174.9-95.2,276.3-106.6c97.9-11.1,194-3.9,287.7,28.3
	c86.2,29.6,160.7,78.1,226,141.2c61.3,59.2,110.4,127.1,143.7,205.8c26.2,61.8,40.9,126.4,45.5,193.4c6.3,91.5-3.8,180.8-35.6,267.2
	c-30.1,81.9-77.7,152.7-137.9,215.4c-26.8,27.9-55.9,53.3-87.1,76.3c-10.8,7.9-21.9,15.1-33.8,21.2c-3.9-0.4-6.9,2.1-10.2,3.5
	c-60.1,26.8-122.1,47.6-187,59.4c-74.9,13.6-149.6,14.1-224.5-0.2c-46-8.8-89.9-24.2-133.4-41.2c-77.3-30.3-145.8-73.7-198.5-138.7
	c-69.1-85.1-109.6-180.7-100.7-292.9c3.5-43.3,10.4-85.9,27.3-126.3c12.9-30.7,26.2-61.2,42.8-90.2c2.2,2.2,2.6,5.3,4,7.9
	c23,44.1,58.6,70.8,108.7,73.6c76.9,4.3,137.2-55.7,135.3-132.7c-2-83.9-91.1-151.8-182.4-111c-4.2,0.4-6.5-2.9-9.2-5.2
	c-34.9-29.3-69.7-58.7-104.5-88.1C267.7,614.4,264.1,613,264.7,608.8z M610.3,1185.9c2.7-90.6-76.9-163-160-164.7
	c-86.9-1.9-168.1,70.4-167.9,163.3c0.2,89.9,72.7,163.6,160.9,165.2C536.4,1351.4,612.6,1273,610.3,1185.9z M1089.3,1362.2
	c88.3,3.1,165.2-74.3,165.3-163.5c0.2-86.8-73.6-164.2-163.8-164.5c-87.9-0.3-164.8,73.6-164.6,164.5
	C926.3,1293.6,1007.6,1364.7,1089.3,1362.2z M774.8,439c-88-3-164.8,72.6-164.5,162.8c0.3,90.8,72.4,162.9,162.2,164.7
	c88.2,1.8,166-73.5,166.2-163.9C938.8,515,864.3,436.4,774.8,439z M1089.8,698c-65.4-2.8-127.9,55.8-127.9,127.4
	c-0.1,71.5,60.5,128.7,127.4,128.3c71.5-0.4,128.1-56.7,128.8-127.8C1218.9,754.9,1157.3,695.4,1089.8,698z M641.7,1367.8
	c0.1,71.4,56.8,127.7,128.5,127.6c70.1-0.1,127.3-57.9,127.2-128.3c0-74-64.1-128.2-129-127.9
	C702.3,1239.5,639.1,1297.8,641.7,1367.8z M758.8,1040.2c38.5,0,69.2-30.4,69.3-68.9c0.1-38.7-30.1-69.1-68.9-69.1
	c-39.1,0-69.2,29.9-69.2,68.7C690,1009.7,720.3,1040.1,758.8,1040.2z M652.1,958.3c18.3,0,32.9-14.2,33.3-32.5
	c0.4-18.3-14.9-33.5-33.5-33.3c-18.8,0.2-32.5,14.2-32.4,33C619.5,944.4,633.4,958.3,652.1,958.3z M732.3,1086.9
	c0.4-18.9-13-33.3-31.6-33.8c-18.7-0.5-34.1,14-34.4,32.5c-0.2,18,14.5,33.1,32.5,33.5C717.5,1119.3,732,1105.4,732.3,1086.9z
	 M642.8,1040.6c18.7,0.3,33.3-13.3,33.8-31.7c0.5-18.6-13.2-33.3-31.6-33.9c-18.8-0.6-34.3,13.9-34.6,32.2
	C610.1,1025.2,624.7,1040.3,642.8,1040.6z M715.1,892.3c18.2-0.1,32.7-14.7,32.7-33.1c0-18.1-14.8-32.9-33-32.9
	c-18.5,0-32.9,14.3-33,32.7C681.8,878.2,696,892.4,715.1,892.3z M801.2,1061.8c-18.6,0-33,14.2-33,32.6c0,18,14.9,33.1,32.8,33.2
	c18.6,0.1,33.4-14.8,33.3-33.6C834.2,1075.4,820.2,1061.8,801.2,1061.8z M802.3,892.3c18.6,0.1,33.6-14.9,33.4-33.5
	c-0.2-17.9-15.4-32.7-33.5-32.5c-18.5,0.1-32.6,14.5-32.5,33.1C769.8,878.4,783.6,892.3,802.3,892.3z M835.7,930.1
	c-0.3,18.8,13.5,33.5,31.7,33.9c18.6,0.4,34-14.4,34.2-32.7c0.2-18-14.5-33.1-32.6-33.2C850.1,897.8,836,911.5,835.7,930.1z
	 M868.2,997.8c-18.8,0.1-32.6,14-32.6,32.8c0,18.7,14,32.9,32.5,33.1c18.5,0.1,33.7-15.1,33.4-33.5
	C901.4,1012.1,886.6,997.8,868.2,997.8z"/>
<path class="st1" d="M264.7,608.8c-0.6,4.2,3,5.6,5.4,7.6c34.8,29.4,69.6,58.8,104.5,88.1c2.7,2.3,5,5.5,9.2,5.2
	c-0.1,4.1,3.5,5.3,5.9,7.5c4.5,4.3,10,7.6,12.9,12.8c-0.8,3.8-3,5.9-4.7,8.4c-14.6,21-28.3,42.7-41.6,64.6
	c-13.6,22.5-27.3,44.9-38.1,68.9c-16.6,28.9-29.9,59.4-42.8,90.2c-17,40.5-23.9,83-27.3,126.3c-9,112.2,31.6,207.8,100.7,292.9
	c52.7,65,121.2,108.4,198.5,138.7c43.5,17,87.4,32.4,133.4,41.2c74.8,14.3,149.6,13.9,224.5,0.2c64.9-11.8,126.9-32.6,187-59.4
	c3.2-1.4,6.2-4,10.2-3.5c0,1.5-1,2.4-2.1,3.1c-82.1,54.5-170.9,92.1-268.9,106.7c-43.3,6.5-86.8,9-130.4,7.2
	c-101.6-4.3-199-26.6-290.8-71.1c-50.9-24.7-97.5-56.1-140.8-92.5c-40.3-33.8-76.5-71.5-105.6-115.4
	c-51-76.9-85.9-160.6-103.6-251.4c-7.9-40.6-12.2-81.5-14.6-122.8c-4.6-78.3,3.9-154.9,28.4-229.5c22.5-68.8,57-131.2,101.3-188.2
	c1.2-1.6,2.2-3.3,5.1-4.2c14.1,11.9,28.6,24.1,43.1,36.3c10.7,9,21.3,18.2,32,27.2C258,606.2,260.5,609.3,264.7,608.8z M330.2,715
	c-44.9-33.2-88.6-65.5-133-98.3c-34.1,52.4-59.1,107.1-76.6,165.7c42.2,26.6,83.1,52.5,125,78.9c11.7-26.4,23.6-51.3,37.4-75.2
	C297,761.9,312.9,739,330.2,715z M109.4,838.7c-16.2,61.7-19.1,122.2-10.6,184.4c29,15.5,58.2,31.1,88.4,47.3
	c3.7-57.6,15.9-111.8,34.9-165.5C184.9,883,148,861.3,109.4,838.7z M96.7,1091.9c-2,39.8,34.4,141.5,61.3,173.1
	c19.7,0,39.4,0,60.6,0c-24.3-44.4-33.3-91.3-34.8-140.2C154.7,1113.8,126.1,1103,96.7,1091.9z M227,1300.5c-18.7,0-36.4,0-55.8,0
	c19.2,24.3,37.2,47.2,55.3,70.1c14.9-3.6,28.9-6.3,43.9-11.3C251.6,1341.6,239,1321.3,227,1300.5z M294,1390.9
	c-15.6,4.6-30,9.8-45.6,16.3c17.7,18.2,33.5,35.7,53.4,49.1c12.4-5.6,24.4-11,37.6-17C321.6,1424.6,308.1,1408.1,294,1390.9z
	 M343.4,1479.6c8.2,10.8,18.6,19.5,32.7,24.6c5.1-4.5,12-6.5,16.3-13.1c-8.6-7.9-16-16.4-25.3-23.7c-6.6,2.8-13.1,5.4-19.5,8.1
	C346.1,1476.1,344.5,1476.7,343.4,1479.6z"/>
<g>
	<g id="XMLID_1_">
		<g>
			<polygon class="st0" points="8111.7,810.5 8111.7,1241.8 8075.7,1241.8 7856.3,1029.3 7856.3,1237.8 7743.1,1237.8 7743.1,806.8 
				7779.6,806.8 7998.2,1018.4 7998.2,810.5 			"/>
			<path class="st0" d="M7502,805.7l198.5,431.8h-124.1l-21.4-49.7h-159.3l-21.7,49.7h-123.8l198.2-431.8H7502z M7519,1105
				l-43.7-101.1l-43.9,101.1H7519z"/>
			<polygon class="st0" points="7207.5,810.5 7207.5,1241.8 7171.6,1241.8 6952.2,1029.3 6952.2,1237.8 6839,1237.8 6839,806.8 
				6875.5,806.8 7094,1018.4 7094,810.5 			"/>
			<path class="st0" d="M6597.9,805.7l198.5,431.8h-124.1l-21.4-49.7h-159.3l-21.7,49.7H6346l198.2-431.8H6597.9z M6614.8,1105
				l-43.7-101.1l-43.9,101.1H6614.8z"/>
			<polygon class="st0" points="6303.4,811 6303.4,1237.5 6190.4,1237.5 6190.4,1076.9 6063.7,1076.9 6063.7,1237.5 5950.4,1237.5 
				5950.4,811 6063.7,811 6063.7,971.1 6190.4,971.1 6190.4,811 			"/>
			<path class="st0" d="M5660.7,799.6c132.6,0,234.2,97.1,234.2,225.2c0,127-101.6,223.6-234.4,223.6
				c-132.6,0-233.9-96.6-233.9-223.6C5426.5,896.7,5528.1,799.6,5660.7,799.6z M5780.3,1024c0-65.9-51.9-116.7-119.6-116.7
				c-67.7,0-119.6,50.8-119.6,116.7c0,65.6,51.9,116.2,119.6,116.2C5728.4,1140.2,5780.3,1089.6,5780.3,1024z"/>
			<polygon class="st0" points="5371,807 5371,1237.5 5257.7,1237.5 5257.7,1068.4 5142.9,1230.4 5142.1,1230.4 5027,1068.4 
				5027,1237.5 4913.7,1237.5 4913.7,807 4959.2,807 5142.3,1057.9 5325.4,807 			"/>
			<path class="st0" d="M4507.3,805.7l198.5,431.8h-124.1l-21.4-49.7h-159.3l-21.7,49.7h-123.8l198.2-431.8H4507.3z M4524.2,1105
				l-43.7-101.1l-43.9,101.1H4524.2z"/>
			<polygon class="st0" points="4099.3,1019 4246.1,1237.5 4108.8,1237.5 4000.9,1075.3 4000.9,1237.5 3887.9,1237.5 3887.9,811 
				4000.9,811 4000.9,970 4099.8,811 4230,811 			"/>
			<rect x="3700.5" y="811" class="st0" width="113.2" height="426.5"/>
			<polygon class="st0" points="3657.9,811 3461.3,1242 3410,1242 3214.2,811 3336.7,811 3435.1,1042 3533.8,811 			"/>
			<path class="st0" d="M3110.5,805.7l198.5,431.8h-124.1l-21.4-49.7h-159.3l-21.7,49.7h-123.8l198.2-431.8H3110.5z M3127.4,1105
				l-43.7-101.1l-43.9,101.1H3127.4z"/>
			<polygon class="st0" points="2841.9,1131.2 2841.9,1237.5 2565.4,1237.5 2565.4,811 2678.6,811 2678.6,1131.2 			"/>
			<path class="st0" d="M2324.4,805.7l198.4,431.8h-124.1l-21.4-49.7H2218l-21.7,49.7h-123.8l198.2-431.8H2324.4z M2341.3,1105
				l-43.7-101.1l-43.9,101.1H2341.3z"/>
			<polygon class="st0" points="2029.8,807 2029.8,1237.5 1916.6,1237.5 1916.6,1068.4 1801.8,1230.4 1801,1230.4 1685.9,1068.4 
				1685.9,1237.5 1572.6,1237.5 1572.6,807 1618.1,807 1801.2,1057.9 1984.3,807 			"/>
		</g>
		<g>
		</g>
	</g>
</g>
<text transform="matrix(1 0 0 1 1648.179 8339.3926)" style="font-family:'LEMONMILK-Bold'; font-size:541.9009px;">MALAVIKA MOHANAN</text>
</svg>
