<?xml version="1.0" encoding="utf-8"?>
<!-- Generator: Adobe Illustrator 23.0.2, SVG Export Plug-In . SVG Version: 6.00 Build 0)  -->
<svg version="1.1" id="Layer_1" xmlns="http://www.w3.org/2000/svg" xmlns:xlink="http://www.w3.org/1999/xlink" x="0px" y="0px"
	 viewBox="0 0 6400 1600" style="enable-background:new 0 0 6400 1600;" xml:space="preserve">
<style type="text/css">
	.st0{fill:#FFFFFF;}
</style>
<g>
	<path class="st0" d="M347.16,472.44c175.39-4.3,327.79,146.79,327.66,327.46c-0.13,178.32-149.86,329-330.69,327.79
		c-176.72-1.19-326.28-151.26-325.8-329.07C18.8,620.82,170.47,467.31,347.16,472.44z M522.01,660.95
		c-48.1-1.89-86.34,40.31-85.85,84.54c0.55,48.84,37.98,87,86.58,86.83c47.66-0.17,84.94-38.65,85.26-86.96
		C608.3,701.14,570.19,658.83,522.01,660.95z M246.19,868.03c-49.21-2.13-86.1,41.07-86.56,84.03
		c-0.51,48.91,41.17,88.06,86.29,87.47c47.72-0.62,85.44-38.62,86-86.59C332.42,908.62,293.71,866.05,246.19,868.03z M371.85,952.55
		c-1.96,48.27,40.44,87.27,85.19,86.97c47.93-0.32,85.88-38.02,86.72-85.85c0.8-45.05-38.29-85.66-85.02-86.08
		C408.57,867.13,370.21,909.44,371.85,952.55z M264.42,626.73c-0.02,48.77,37.12,86.08,85.7,86.09
		c48.25,0.02,86.23-37.87,86.19-85.96c-0.06-47.56-37.68-85.15-85.45-85.39C301.85,541.24,264.45,578.14,264.42,626.73z
		 M178.39,660.95c-45.95-2.23-85.95,37.65-85.89,84.41c0.06,48.16,37.55,86.78,85.19,86.95c48.15,0.18,86.97-38.77,86.75-86.84
		C264.22,697.92,223.41,658.77,178.39,660.95z"/>
	<path class="st0" d="M484.6,1107.45c1.65-0.96,3.25-2.04,4.97-2.86c74.63-35.7,127.54-92.8,163.46-166.45
		c3.4-6.99,7.69-11.01,15.13-13.4c91.29-29.5,183.29-56.42,277.31-76c53.99-11.25,108.53-15.4,163.22-8.1
		c75.75,10.09,142.84,40.77,201.15,90.27c3.14,2.67,5.8,6.64,7.18,10.54c16.38,46.33,32.48,92.76,48.62,139.17
		c0.48,1.36,0.68,2.82,1.46,6.21c-4.64-3.62-7.76-5.89-10.71-8.35c-64.25-53.51-138.49-84.39-220.93-95.07
		c-67.87-8.79-135.18-4.05-201.82,12.42c-108.87,26.92-217.26,55.54-325.14,86.23c-32.72,9.31-66.46,15.02-99.73,22.34
		c-7.7,1.69-15.42,3.24-23.14,4.84C485.3,1108.64,484.95,1108.04,484.6,1107.45z"/>
	<path class="st0" d="M4313.06,1011.03c0-92.34,0-183.42,0-274.5c-0.82-0.18-1.65-0.36-2.48-0.55
		c-14.79,45.62-28.54,91.58-42.72,137.4c-14.17,45.8-28.36,91.58-42.68,137.8c-18.41,0-36.57,0-56.39,0
		c-27.72-91.46-55.54-183.25-83.37-275.04c-0.77,0.15-1.54,0.31-2.31,0.45c0,91.03,0,182.06,0,272.83
		c-8.95,2.78-46.25,3.56-66.73,1.62c-2.51-8.02-3.45-329.18-0.9-347.38c41.76,0,83.64,0,126.5,0
		c19.96,67.87,39.94,135.84,59.92,203.79c23.96-67.53,44.19-135.83,65.85-204.01c42.27,0,83.79,0,125.2,0
		c2.45,9.02,3.06,332.66,0.64,347.59C4367.4,1011.03,4341.05,1011.03,4313.06,1011.03z"/>
	<path class="st0" d="M1754.81,736.11c-28.26,91.41-56.54,182.84-85,274.87c-18.38,0-36.45,0-56.07,0
		c-28.88-90.78-55.46-183.01-83.66-274.73c-0.82,0.11-1.63,0.23-2.45,0.33c0,91.19,0,182.38,0,274.37c-22.95,0-44.57,0-66.24,0
		c-2.55-7.93-3.53-328.99-0.9-347.25c41.34,0,82.83,0,126.06,0c19.82,67.34,39.86,135.45,59.91,203.57
		c0.86,0.07,1.71,0.14,2.57,0.21c21.03-67.86,42.06-135.71,63.21-203.96c42.21,0,83.71,0,125.14,0c0.38,0.31,0.73,0.52,0.99,0.81
		c0.25,0.29,0.58,0.64,0.58,0.98c0.24,112.61,0.45,225.23,0.63,337.83c0,2.33-0.45,4.65-0.77,7.78c-26.61,0-53,0-81.18,0
		c-0.23-91.36,0.01-182.78-0.13-274.2C1756.59,736.52,1755.7,736.32,1754.81,736.11z"/>
	<path class="st0" d="M6381.68,1011.35c-23.86,0-46.39,0-69.67,0c-44.5-76.88-89.02-153.83-133.55-230.77
		c-0.57,0.27-1.13,0.55-1.7,0.81c0,76.26,0,152.51,0,229.56c-20.71,0-41.09,0-62.28,0c0-115.57,0-230.82,0-347.21
		c3.23-0.29,6.63-0.83,10.04-0.85c22.61-0.08,45.22,0.27,67.82-0.21c7.5-0.17,11.22,2.89,14.75,9.03
		c34.67,60.56,69.6,120.97,104.47,181.41c1.96,3.4,4.09,6.71,7.53,12.34c0-68.61,0-134.71,0-202.57c21.34-0.02,41.68-0.3,62.59,0.25
		C6381.68,779.58,6381.68,894.84,6381.68,1011.35z"/>
	<path class="st0" d="M5663.15,862.81c0-66.04,0-132.09,0-199.04c20.54,0,40.52,0,60.48,0c2.3,8.68,2.95,331.68,0.5,347.99
		c-7.12,0-14.52,0-21.93,0c-11.89,0-23.83-0.57-35.67,0.19c-8.34,0.55-12.7-2.71-16.71-9.72c-32.67-57.1-65.69-114-98.62-170.96
		c-9.5-16.41-19.04-32.8-30.4-48.89c0,37.98,0,75.94,0,113.92c0,37.98,0,75.95,0,114.69c-21.47,0-41.84,0-62.98,0
		c0-115.64,0-230.87,0-347.4c3.76-0.24,7.57-0.67,11.38-0.68c21.41-0.07,42.83,0.39,64.23-0.24c8.66-0.25,13.47,2.63,17.74,10.14
		c34.14,59.91,68.7,119.58,103.15,179.32c2.17,3.75,4.44,7.44,6.66,11.16C5661.72,863.11,5662.43,862.96,5663.15,862.81z"/>
	<path class="st0" d="M4880.07,868.67c0,47.68,0,94.35,0,140.74c-9.18,2.83-56.9,3.67-78.67,1.64c-2.4-8.13-3.28-329.81-0.85-347.43
		c25.87,0,51.86,0,79.34,0c0,45.02,0,89.57,0,134.73c36.62,0,71.76,0,108.51,0c0.64-44.87-0.05-89.47,0.4-134.77
		c27.05,0,52.99,0,79.44,0c0,116,0,231.3,0,347.38c-26.41,0-52.32,0-79.58,0c0-47.64,0-94.66,0-142.3
		C4952.13,868.67,4916.96,868.67,4880.07,868.67z"/>
	<path class="st0" d="M4447.83,839.99c0.58-43.39,7.56-81.49,28.73-116.13c26.91-44.05,66.37-65.44,117.5-66.21
		c25.28-0.38,49.72,3.08,72.27,15.72c17.3,9.7,31.38,22.74,42.43,39.11c27.12,40.15,38.35,84.75,36.92,132.84
		c-1.07,36.21-9.02,70.62-26.93,102.4c-25.85,45.87-65.43,68.34-117.77,69.37c-21.24,0.42-41.84-2.12-61.62-10.38
		c-19.49-8.14-35.61-20.56-48.59-37.08c-24.18-30.78-37.29-65.97-41.19-104.72C4448.61,855.45,4448.23,845.93,4447.83,839.99z
		 M4531.9,836.4c2.71,20.34,4.94,41.18,8.45,61.8c1.99,11.75,7.58,22.37,14.61,32.2c19.29,26.99,68.05,28.4,86.21-3.23
		c5.64-9.81,10.02-20.73,12.81-31.7c7.91-31.09,7.46-62.83,4.14-94.47c-1.69-16.15-5.3-31.98-12.73-46.74
		c-9.62-19.09-24.73-29.48-46.18-29.95c-22.12-0.49-39.28,8.49-49.67,28.35c-4,7.65-7.81,15.86-9.32,24.25
		C4536.72,796.33,4534.66,816.01,4531.9,836.4z"/>
	<path class="st0" d="M3503.13,662.85c-28.94,42.97-56.35,83.68-83.88,124.56c34.76,74.39,69.28,148.27,104.4,223.45
		c-30.51,0-59.56,0-90.01,0c-22.39-48.9-45.1-98.54-68.38-149.39c-2.55,2.95-4.7,5.03-6.37,7.46
		c-12.83,18.61-25.41,37.39-38.42,55.89c-3.39,4.83-4.77,9.68-4.71,15.47c0.19,19.43,0.1,38.87,0.05,58.31
		c-0.01,3.88-0.32,7.77-0.54,12.39c-26.61,0-52.52,0-79.13,0c0-115.75,0-231.01,0-348.04c26.03-0.15,51.95-0.1,79.62,0
		c0.17,27.46,0.06,53.86,0.07,80.26c0.02,26.09,0,52.17,0,78.27c0.77,0.36,1.56,0.71,2.33,1.06c2.32-3.31,4.71-6.56,6.95-9.93
		c31.03-46.52,62.19-92.93,92.85-139.69c4.94-7.55,10.15-10.58,19.23-10.28C3458.13,663.33,3479.11,662.85,3503.13,662.85z"/>
	<path class="st0" d="M2684.07,1010.79c-7.08-23.43-14.06-46.5-21.16-69.99c-37.74,0-74.87,0-112.79,0
		c-7.27,23.34-14.55,46.72-21.9,70.28c-23.73,0-46.94,0-71.5,0c37.29-116.32,74.24-231.63,111.37-347.47c31.61,0,62.74,0,94.8,0
		c36.13,115.24,72.24,230.4,108.33,345.53C2763.32,1012.31,2707.97,1013.34,2684.07,1010.79z M2641.92,875.21
		c-1.58-14.28-31.31-111.25-36.26-117.74c-11.64,39.27-24.25,77.82-35.25,117.74C2595.34,875.21,2618.59,875.21,2641.92,875.21z"/>
	<path class="st0" d="M5215.82,663.4c32.35,0,63.17,0,94.71,0c36.27,115.75,72.47,231.21,108.98,347.72c-30.06,0-58.41,0-87.6,0
		c-7.14-23.53-14.25-46.89-21.39-70.44c-37.86,0-75,0-112.69,0c-7.37,23.67-14.64,47-21.98,70.56c-23.66,0-46.53,0-71.36,0
		C5141.42,894.87,5178.74,779.52,5215.82,663.4z M5290.99,875.33c-12-40.19-23.55-78.9-35.42-118.68
		c-6.55,11.57-35.91,109.64-35.79,118.68C5242.68,875.33,5265.59,875.33,5290.99,875.33z"/>
	<path class="st0" d="M3736.44,662.85c36.54,116.55,72.63,231.74,109.1,348.06c-29.56,0-57.86,0-87.65,0
		c-6.88-22.75-13.94-46.1-21.17-70.04c-37.39,0-74.52,0-112.83,0c-7.18,23-14.45,46.33-21.89,70.19c-23.58,0-46.81,0-71.27,0
		c1.26-4.24,2.28-7.96,3.45-11.63c34.68-108.26,69.31-216.54,104.15-324.75c3.82-11.89,0.64-11.84,16.28-11.83
		c22.99,0.01,46,0,68.99,0C3727.54,662.85,3731.47,662.85,3736.44,662.85z M3682.04,757.99c-0.89,0-1.77,0-2.67-0.01
		c-5.93,19.45-12.02,38.83-17.76,58.34c-5.7,19.4-12.67,38.46-17.08,58.66c24.85,0,47.98,0,72.45,0
		C3705.14,835.31,3693.59,796.66,3682.04,757.99z"/>
	<path class="st0" d="M5988.5,1011.19c-7.33-24.24-14.31-47.29-21.33-70.51c-37.94,0-75.1,0-112.71,0
		c-7.39,23.73-14.66,47.1-21.99,70.64c-23.68,0-46.6,0-71.48,0c37.29-116.37,74.29-231.84,111.44-347.77c31.83,0,62.97,0,94.79,0
		c36.26,115.71,72.47,231.21,108.95,347.65C6046.13,1011.19,6017.72,1011.19,5988.5,1011.19z M5874.33,874.99
		c25.41,0,48.57,0,73.2,0c-11.87-39.74-23.41-78.43-34.96-117.12c-0.88-0.04-1.76-0.07-2.65-0.11
		C5898.18,796.45,5886.43,835.14,5874.33,874.99z"/>
	<path class="st0" d="M2189.93,1011.29c-30.6,0-58.66,0-87.59,0c-7.16-23.58-14.28-46.99-21.46-70.58c-37.79,0-74.94,0-112.7,0
		c-7.38,23.67-14.64,47-21.97,70.53c-23.74,0-46.62,0-71.48,0c37.32-116.48,74.37-232.06,111.48-347.85c31.76,0,62.61,0,94.67,0
		C2117.04,778.74,2153.25,894.26,2189.93,1011.29z M2061.23,875.02c-11.94-40.02-23.55-78.95-35.16-117.89
		c-0.77,0.04-1.56,0.07-2.33,0.11c-11.82,39.07-23.64,78.13-35.63,117.78C2013.14,875.02,2036.34,875.02,2061.23,875.02z"/>
	<path class="st0" d="M2754.11,663.51c29.66,0,57.6,0,86.78,0c22.92,81.38,45.87,162.83,68.81,244.28
		c11.16-26.22,18.04-53.46,26.04-80.33c8.13-27.32,15.94-54.74,23.92-82.11c7.96-27.3,15.96-54.6,23.98-82.03c22.7,0,44.4,0,66.11,0
		c-0.04,10.01-88.53,307.8-103.24,347.72c-28.9,0-58.04,0-88.11,0C2823.78,895.71,2789.22,780.51,2754.11,663.51z"/>
	<path class="st0" d="M2448.66,942.44c0,24.15,0,46.15,0,68.73c-73.58,0-146.38,0-219.06,0c-2.45-9.68-2.84-335.3-0.42-347.65
		c26.27,0,52.66,0,80.31,0c1.34,15.46,0.43,30.78,0.59,46.03c0.17,15.46,0.04,30.93,0.04,46.4c0,15.47,0,30.93,0,46.4
		s0,30.93,0,46.4c0,15.47,0,30.93,0,46.4c0,15.38,0,30.74,0,47.29C2356.77,942.44,2402.2,942.44,2448.66,942.44z"/>
	<path class="st0" d="M3084.54,663.66c26.25,0,52.6,0,79.67,0c0,115.67,0,230.87,0,346.08c-8.01,2.45-59.93,3.25-78.86,1.2
		C3083.09,1002.67,3082.25,681.74,3084.54,663.66z"/>
</g>
</svg>
